<svg xmlns="http://www.w3.org/2000/svg" version="1.1" xmlns:xlink="http://www.w3.org/1999/xlink" xmlns:svgjs="http://svgjs.dev/svgjs" width="260" height="260"><svg width="260" height="260" viewBox="0 0 260 260" fill="none" xmlns="http://www.w3.org/2000/svg">
    <g transform="translate(40,40) scale(1)">
        <path d="M70.2074 180.406H49.9084C46.3974 180.406 43.552 177.944 43.552 174.906V91.1682C43.552 88.1302 46.3974 85.6682 49.9084 85.6682H70.2074C73.7185 85.6682 76.5639 88.1302 76.5639 91.1682V174.906C76.5639 177.944 73.7185 180.406 70.2074 180.406Z" fill="#2E6C99"></path>
        <path d="M112.997 180.406H92.6977C89.1867 180.406 86.3413 177.944 86.3413 174.906V63.3042C86.3413 60.2662 89.1867 57.8042 92.6977 57.8042H112.997C116.508 57.8042 119.353 60.2662 119.353 63.3042V174.906C119.353 177.944 116.506 180.406 112.997 180.406Z" fill="#3498DB"></path>
        <path d="M27.4206 180.406H7.12158C3.61051 180.406 0.765137 177.944 0.765137 174.906V119.032C0.765137 115.994 3.61051 113.532 7.12158 113.532H27.4206C30.9316 113.532 33.777 115.994 33.777 119.032V174.906C33.777 177.944 30.9293 180.406 27.4206 180.406Z" fill="#2C3E50"></path>
        <path d="M155.784 180.406H135.485C131.974 180.406 129.128 177.944 129.128 174.906V35.4404C129.128 32.4024 131.974 29.9404 135.485 29.9404H155.784C159.295 29.9404 162.14 32.4024 162.14 35.4404V174.906C162.14 177.944 159.295 180.406 155.784 180.406Z" fill="#27AE60"></path>
        <path d="M134.091 36.3604H176.12C180.25 36.3604 182.319 31.8444 179.397 29.2044L148.912 1.6345C147.102 -0.00349302 144.166 -0.00349302 142.357 1.6345L111.871 29.2024C108.949 31.8444 111.018 36.3584 115.149 36.3584L134.091 36.3604Z" fill="#27AE60"></path>
    </g>
</svg><style>@media (prefers-color-scheme: light) { :root { filter: none; } }
@media (prefers-color-scheme: dark) { :root { filter: none; } }
</style></svg>